<svg width="4634" height="2402" xmlns="http://www.w3.org/2000/svg" xmlns:xlink="http://www.w3.org/1999/xlink" xml:space="preserve" overflow="hidden"><defs><clipPath id="clip0"><rect x="59" y="36" width="4634" height="2402"/></clipPath><clipPath id="clip1"><rect x="59" y="36" width="4634" height="2402"/></clipPath><clipPath id="clip2"><rect x="61" y="1237" width="4631" height="612"/></clipPath></defs><g clip-path="url(#clip0)" transform="translate(-59 -36)"><g clip-path="url(#clip1)"><g><path d="M211.5 379.513 4641.5 379.513M211.5 228.5 4641.5 228.5" stroke="#D9D9D9" stroke-width="3.4375" stroke-linecap="butt" stroke-linejoin="round" stroke-miterlimit="10" stroke-opacity="1" fill="none" fill-rule="nonzero"/></g><g><path d="M318.01 313.01 414.014 313.01 414.014 530 318.01 530ZM871.029 397.013 968.032 397.013 968.032 530 871.029 530ZM1425.05 518.017 1522.05 518.017 1522.05 530 1425.05 530ZM1979.06 430.014 2076.07 430.014 2076.07 530 1979.06 530ZM2533.08 482.016 2629.09 482.016 2629.09 530 2533.08 530ZM3086.1 406.013 3183.1 406.013 3183.1 530 3086.1 530ZM3640.12 295.01 3737.12 295.01 3737.12 530 3640.12 530ZM4194.14 415.014 4290.14 415.014 4290.14 530 4194.14 530Z" stroke="#000000" stroke-width="5.72917" stroke-linecap="butt" stroke-linejoin="round" stroke-miterlimit="10" stroke-opacity="1" fill="#F18080" fill-rule="nonzero" fill-opacity="1"/></g><g><path d="M441.014 313.01 537.018 313.01 537.018 530 441.014 530ZM994.033 409.013 1091.04 409.013 1091.04 530 994.033 530ZM1548.05 519.017 1645.05 519.017 1645.05 530 1548.05 530ZM2102.07 334.011 2198.07 334.011 2198.07 530 2102.07 530ZM2655.09 485.016 2752.09 485.016 2752.09 530 2655.09 530ZM3209.11 352.012 3306.11 352.012 3306.11 530 3209.11 530ZM3763.12 394.013 3859.13 394.013 3859.13 530 3763.12 530ZM4316.14 394.013 4413.14 394.013 4413.14 530 4316.14 530Z" stroke="#000000" stroke-width="5.72917" stroke-linecap="butt" stroke-linejoin="round" stroke-miterlimit="10" stroke-opacity="1" fill="#87CFEC" fill-rule="nonzero" fill-opacity="1"/></g><g><path d="M563.018 274.009 660.022 274.009 660.022 530 563.018 530ZM1117.04 256.008 1214.04 256.008 1214.04 530 1117.04 530ZM1671.05 485.016 1767.06 485.016 1767.06 530 1671.05 530ZM2224.07 295.01 2321.08 295.01 2321.08 530 2224.07 530ZM2778.09 430.014 2875.09 430.014 2875.09 530 2778.09 530ZM3332.11 340.011 3428.11 340.011 3428.11 530 3332.11 530ZM3885.13 289.009 3982.13 289.009 3982.13 530 3885.13 530ZM4439.15 361.012 4536.15 361.012 4536.15 530 4439.15 530Z" stroke="#000000" stroke-width="5.72917" stroke-linecap="butt" stroke-linejoin="round" stroke-miterlimit="10" stroke-opacity="1" fill="#FFDEAD" fill-rule="nonzero" fill-opacity="1"/></g><g><path d="M211.5 529.5 4641.5 529.5" stroke="#D9D9D9" stroke-width="3.4375" stroke-linecap="butt" stroke-linejoin="round" stroke-miterlimit="10" stroke-opacity="1" fill="none" fill-rule="evenodd"/></g><g><text fill="#595959" fill-opacity="1" font-family="Calibri,Calibri_MSFontService,sans-serif" font-style="normal" font-variant="normal" font-weight="400" font-stretch="normal" font-size="55" text-anchor="start" direction="ltr" writing-mode="lr-tb" unicode-bidi="normal" text-decoration="none" transform="matrix(1 0 0 1 133.295 545)">0</text></g><g><text fill="#595959" fill-opacity="1" font-family="Calibri,Calibri_MSFontService,sans-serif" font-style="normal" font-variant="normal" font-weight="400" font-stretch="normal" font-size="55" text-anchor="start" direction="ltr" writing-mode="lr-tb" unicode-bidi="normal" text-decoration="none" transform="matrix(1 0 0 1 91.6551 394)">0.5</text></g><g><text fill="#595959" fill-opacity="1" font-family="Calibri,Calibri_MSFontService,sans-serif" font-style="normal" font-variant="normal" font-weight="400" font-stretch="normal" font-size="55" text-anchor="start" direction="ltr" writing-mode="lr-tb" unicode-bidi="normal" text-decoration="none" transform="matrix(1 0 0 1 133.295 243)">1</text></g><g><text fill="#595959" fill-opacity="1" font-family="Times New Roman,Times New Roman_MSFontService,sans-serif" font-style="normal" font-variant="normal" font-weight="700" font-stretch="normal" font-size="73" text-anchor="start" direction="ltr" writing-mode="lr-tb" unicode-bidi="normal" text-decoration="none" transform="matrix(1 0 0 1 318.712 638)">Antonyms</text></g><g><text fill="#595959" fill-opacity="1" font-family="Times New Roman,Times New Roman_MSFontService,sans-serif" font-style="normal" font-variant="normal" font-weight="700" font-stretch="normal" font-size="73" text-anchor="start" direction="ltr" writing-mode="lr-tb" unicode-bidi="normal" text-decoration="none" transform="matrix(1 0 0 1 797.131 638)">Cause Selection</text></g><g><text fill="#595959" fill-opacity="1" font-family="Times New Roman,Times New Roman_MSFontService,sans-serif" font-style="normal" font-variant="normal" font-weight="700" font-stretch="normal" font-size="73" text-anchor="start" direction="ltr" writing-mode="lr-tb" unicode-bidi="normal" text-decoration="none" transform="matrix(1 0 0 1 1451.65 638)">Common</text></g><g><text fill="#595959" fill-opacity="1" font-family="Times New Roman,Times New Roman_MSFontService,sans-serif" font-style="normal" font-variant="normal" font-weight="700" font-stretch="normal" font-size="73" text-anchor="start" direction="ltr" writing-mode="lr-tb" unicode-bidi="normal" text-decoration="none" transform="matrix(1 0 0 1 1933.05 638)">Word Sorting</text></g><g><text fill="#595959" fill-opacity="1" font-family="Times New Roman,Times New Roman_MSFontService,sans-serif" font-style="normal" font-variant="normal" font-weight="700" font-stretch="normal" font-size="73" text-anchor="start" direction="ltr" writing-mode="lr-tb" unicode-bidi="normal" text-decoration="none" transform="matrix(1 0 0 1 2626.35 638)">Ascii</text></g><g><text fill="#595959" fill-opacity="1" font-family="Times New Roman,Times New Roman_MSFontService,sans-serif" font-style="normal" font-variant="normal" font-weight="700" font-stretch="normal" font-size="73" text-anchor="start" direction="ltr" writing-mode="lr-tb" unicode-bidi="normal" text-decoration="none" transform="matrix(1 0 0 1 3100.65 638)">Formality</text></g><g><text fill="#595959" fill-opacity="1" font-family="Times New Roman,Times New Roman_MSFontService,sans-serif" font-style="normal" font-variant="normal" font-weight="700" font-stretch="normal" font-size="73" text-anchor="start" direction="ltr" writing-mode="lr-tb" unicode-bidi="normal" text-decoration="none" transform="matrix(1 0 0 1 3670.64 638)">Negation</text></g><g><text fill="#595959" fill-opacity="1" font-family="Times New Roman,Times New Roman_MSFontService,sans-serif" font-style="normal" font-variant="normal" font-weight="700" font-stretch="normal" font-size="73" text-anchor="start" direction="ltr" writing-mode="lr-tb" unicode-bidi="normal" text-decoration="none" transform="matrix(1 0 0 1 4103.12 638)">Object Counting</text></g><g><rect x="1962" y="100" width="36.9998" height="36.0001" stroke="#000000" stroke-width="5.72917" stroke-linecap="butt" stroke-linejoin="round" stroke-miterlimit="10" stroke-opacity="1" fill="#F18080" fill-opacity="1"/></g><g><text fill="#595959" fill-opacity="1" font-family="Times New Roman,Times New Roman_MSFontService,sans-serif" font-style="normal" font-variant="normal" font-weight="700" font-stretch="normal" font-size="73" text-anchor="start" direction="ltr" writing-mode="lr-tb" unicode-bidi="normal" text-decoration="none" transform="matrix(1 0 0 1 2015.3 140)">APE</text></g><g><rect x="2222" y="100" width="36" height="36.0001" stroke="#000000" stroke-width="5.72917" stroke-linecap="butt" stroke-linejoin="round" stroke-miterlimit="10" stroke-opacity="1" fill="#87CFEC" fill-opacity="1"/></g><g><text fill="#595959" fill-opacity="1" font-family="Times New Roman,Times New Roman_MSFontService,sans-serif" font-style="normal" font-variant="normal" font-weight="700" font-stretch="normal" font-size="73" text-anchor="start" direction="ltr" writing-mode="lr-tb" unicode-bidi="normal" text-decoration="none" transform="matrix(1 0 0 1 2274.75 140)">Uniform</text></g><g><rect x="2603" y="100" width="37.0002" height="36.0001" stroke="#000000" stroke-width="5.72917" stroke-linecap="butt" stroke-linejoin="round" stroke-miterlimit="10" stroke-opacity="1" fill="#FFDEAD" fill-opacity="1"/></g><g><text fill="#595959" fill-opacity="1" font-family="Times New Roman,Times New Roman_MSFontService,sans-serif" font-style="normal" font-variant="normal" font-weight="700" font-stretch="normal" font-size="73" text-anchor="start" direction="ltr" writing-mode="lr-tb" unicode-bidi="normal" text-decoration="none" transform="matrix(1 0 0 1 2656.39 140)">Ours</text></g><g><path d="M229.5 883.529 4648.5 883.529M229.5 700.5 4648.5 700.5" stroke="#D9D9D9" stroke-width="3.4375" stroke-linecap="butt" stroke-linejoin="round" stroke-miterlimit="10" stroke-opacity="1" fill="none" fill-rule="nonzero"/></g><g><path d="M335.011 1027.03 431.014 1027.03 431.014 1067 335.011 1067ZM887.029 1064.03 984.032 1064.03 984.032 1067 887.029 1067ZM1440.05 847.028 1536.05 847.028 1536.05 1067 1440.05 1067ZM2545.08 1053.03 2641.09 1053.03 2641.09 1067 2545.08 1067ZM3097.1 737.024 3193.1 737.024 3193.1 1067 3097.1 1067ZM3649.12 1038.03 3746.12 1038.03 3746.12 1067 3649.12 1067ZM4202.14 1001.03 4298.14 1001.03 4298.14 1067 4202.14 1067Z" stroke="#000000" stroke-width="5.72917" stroke-linecap="butt" stroke-linejoin="round" stroke-miterlimit="10" stroke-opacity="1" fill="#F18080" fill-rule="nonzero" fill-opacity="1"/></g><g><path d="M457.015 1030.03 554.018 1030.03 554.018 1067 457.015 1067ZM1010.03 950.031 1106.04 950.031 1106.04 1067 1010.03 1067ZM1562.05 1005.03 1659.05 1005.03 1659.05 1067 1562.05 1067ZM2115.07 1020.03 2211.07 1020.03 2211.07 1067 2115.07 1067ZM2667.09 803.026 2763.09 803.026 2763.09 1067 2667.09 1067ZM3219.11 752.025 3316.11 752.025 3316.11 1067 3219.11 1067ZM3772.12 1056.03 3868.13 1056.03 3868.13 1067 3772.12 1067ZM4324.14 1023.03 4421.15 1023.03 4421.15 1067 4324.14 1067Z" stroke="#000000" stroke-width="5.72917" stroke-linecap="butt" stroke-linejoin="round" stroke-miterlimit="10" stroke-opacity="1" fill="#87CFEC" fill-rule="nonzero" fill-opacity="1"/></g><g><path d="M580.019 946.031 676.022 946.031 676.022 1067 580.019 1067ZM1132.04 899.029 1229.04 899.029 1229.04 1067 1132.04 1067ZM1685.06 840.028 1781.06 840.028 1781.06 1067 1685.06 1067ZM2237.07 998.033 2333.08 998.033 2333.08 1067 2237.07 1067ZM2789.09 730.024 2886.09 730.024 2886.09 1067 2789.09 1067ZM3342.11 726.024 3438.11 726.024 3438.11 1067 3342.11 1067ZM3894.13 880.029 3991.13 880.029 3991.13 1067 3894.13 1067ZM4447.15 928.03 4543.15 928.03 4543.15 1067 4447.15 1067Z" stroke="#000000" stroke-width="5.72917" stroke-linecap="butt" stroke-linejoin="round" stroke-miterlimit="10" stroke-opacity="1" fill="#FFDEAD" fill-rule="nonzero" fill-opacity="1"/></g><g><path d="M229.5 1067.5 4648.5 1067.5" stroke="#D9D9D9" stroke-width="3.4375" stroke-linecap="butt" stroke-linejoin="round" stroke-miterlimit="10" stroke-opacity="1" fill="none" fill-rule="evenodd"/></g><g><text fill="#595959" fill-opacity="1" font-family="Calibri,Calibri_MSFontService,sans-serif" font-style="normal" font-variant="normal" font-weight="400" font-stretch="normal" font-size="55" text-anchor="start" direction="ltr" writing-mode="lr-tb" unicode-bidi="normal" text-decoration="none" transform="matrix(1 0 0 1 150.811 1082)">0</text></g><g><text fill="#595959" fill-opacity="1" font-family="Calibri,Calibri_MSFontService,sans-serif" font-style="normal" font-variant="normal" font-weight="400" font-stretch="normal" font-size="55" text-anchor="start" direction="ltr" writing-mode="lr-tb" unicode-bidi="normal" text-decoration="none" transform="matrix(1 0 0 1 109.171 899)">0.5</text></g><g><text fill="#595959" fill-opacity="1" font-family="Calibri,Calibri_MSFontService,sans-serif" font-style="normal" font-variant="normal" font-weight="400" font-stretch="normal" font-size="55" text-anchor="start" direction="ltr" writing-mode="lr-tb" unicode-bidi="normal" text-decoration="none" transform="matrix(1 0 0 1 150.811 715)">1</text></g><g><text fill="#595959" fill-opacity="1" font-family="Times New Roman,Times New Roman_MSFontService,sans-serif" font-style="normal" font-variant="normal" font-weight="700" font-stretch="normal" font-size="73" text-anchor="start" direction="ltr" writing-mode="lr-tb" unicode-bidi="normal" text-decoration="none" transform="matrix(1 0 0 1 277.546 1176)">CS_Algorithm</text></g><g><text fill="#595959" fill-opacity="1" font-family="Times New Roman,Times New Roman_MSFontService,sans-serif" font-style="normal" font-variant="normal" font-weight="700" font-stretch="normal" font-size="73" text-anchor="start" direction="ltr" writing-mode="lr-tb" unicode-bidi="normal" text-decoration="none" transform="matrix(1 0 0 1 931.82 1176)">Rhymes</text></g><g><text fill="#595959" fill-opacity="1" font-family="Times New Roman,Times New Roman_MSFontService,sans-serif" font-style="normal" font-variant="normal" font-weight="700" font-stretch="normal" font-size="73" text-anchor="start" direction="ltr" writing-mode="lr-tb" unicode-bidi="normal" text-decoration="none" transform="matrix(1 0 0 1 1391.6 1176)">Second Letter</text></g><g><text fill="#595959" fill-opacity="1" font-family="Times New Roman,Times New Roman_MSFontService,sans-serif" font-style="normal" font-variant="normal" font-weight="700" font-stretch="normal" font-size="73" text-anchor="start" direction="ltr" writing-mode="lr-tb" unicode-bidi="normal" text-decoration="none" transform="matrix(1 0 0 1 2006.09 1176)">Similarity</text></g><g><text fill="#595959" fill-opacity="1" font-family="Times New Roman,Times New Roman_MSFontService,sans-serif" font-style="normal" font-variant="normal" font-weight="700" font-stretch="normal" font-size="73" text-anchor="start" direction="ltr" writing-mode="lr-tb" unicode-bidi="normal" text-decoration="none" transform="matrix(1 0 0 1 2548.28 1176)">Taxonomy</text></g><g><text fill="#595959" fill-opacity="1" font-family="Times New Roman,Times New Roman_MSFontService,sans-serif" font-style="normal" font-variant="normal" font-weight="700" font-stretch="normal" font-size="73" text-anchor="start" direction="ltr" writing-mode="lr-tb" unicode-bidi="normal" text-decoration="none" transform="matrix(1 0 0 1 3108.86 1176)">Sentiment</text></g><g><text fill="#595959" fill-opacity="1" font-family="Times New Roman,Times New Roman_MSFontService,sans-serif" font-style="normal" font-variant="normal" font-weight="700" font-stretch="normal" font-size="73" text-anchor="start" direction="ltr" writing-mode="lr-tb" unicode-bidi="normal" text-decoration="none" transform="matrix(1 0 0 1 3612.37 1176)">Orthography</text></g><g><text fill="#595959" fill-opacity="1" font-family="Times New Roman,Times New Roman_MSFontService,sans-serif" font-style="normal" font-variant="normal" font-weight="700" font-stretch="normal" font-size="73" text-anchor="start" direction="ltr" writing-mode="lr-tb" unicode-bidi="normal" text-decoration="none" transform="matrix(1 0 0 1 4211.57 1176)">Synonyms</text></g><g><path d="M229.5 1459.55 4648.5 1459.55M229.5 1270.5 4648.5 1270.5" stroke="#D9D9D9" stroke-width="3.4375" stroke-linecap="butt" stroke-linejoin="round" stroke-miterlimit="10" stroke-opacity="1" fill="none" fill-rule="nonzero"/></g><g><path d="M335.011 1354.04 431.014 1354.04 431.014 1647 335.011 1647ZM887.029 1421.05 984.032 1421.05 984.032 1647 887.029 1647ZM1440.05 1444.05 1536.05 1444.05 1536.05 1647 1440.05 1647ZM1992.07 1643.05 2089.07 1643.05 2089.07 1647 1992.07 1647ZM2545.08 1591.05 2641.09 1591.05 2641.09 1647 2545.08 1647ZM3097.1 1523.05 3193.1 1523.05 3193.1 1647 3097.1 1647ZM3649.12 1339.04 3746.12 1339.04 3746.12 1647 3649.12 1647ZM4202.14 1327.04 4298.14 1327.04 4298.14 1647 4202.14 1647Z" stroke="#000000" stroke-width="5.72917" stroke-linecap="butt" stroke-linejoin="round" stroke-miterlimit="10" stroke-opacity="1" fill="#F18080" fill-rule="nonzero" fill-opacity="1"/></g><g><path d="M457.015 1436.05 554.018 1436.05 554.018 1647 457.015 1647ZM1010.03 1327.04 1106.04 1327.04 1106.04 1647 1010.03 1647ZM1562.05 1327.04 1659.05 1327.04 1659.05 1647 1562.05 1647ZM2115.07 1459.05 2211.07 1459.05 2211.07 1647 2115.07 1647ZM2667.09 1542.05 2763.09 1542.05 2763.09 1647 2667.09 1647ZM3219.11 1553.05 3316.11 1553.05 3316.11 1647 3219.11 1647ZM3772.12 1342.04 3868.13 1342.04 3868.13 1647 3772.12 1647ZM4324.14 1309.04 4421.15 1309.04 4421.15 1647 4324.14 1647Z" stroke="#000000" stroke-width="5.72917" stroke-linecap="butt" stroke-linejoin="round" stroke-miterlimit="10" stroke-opacity="1" fill="#87CFEC" fill-rule="nonzero" fill-opacity="1"/></g><g><path d="M580.019 1342.04 676.022 1342.04 676.022 1647 580.019 1647ZM1132.04 1320.04 1229.04 1320.04 1229.04 1647 1132.04 1647ZM1685.06 1312.04 1781.06 1312.04 1781.06 1647 1685.06 1647ZM2237.07 1395.05 2333.08 1395.05 2333.08 1647 2237.07 1647ZM2789.09 1542.05 2886.09 1542.05 2886.09 1647 2789.09 1647ZM3342.11 1459.05 3438.11 1459.05 3438.11 1647 3342.11 1647ZM3894.13 1301.04 3991.13 1301.04 3991.13 1647 3894.13 1647ZM4447.15 1301.04 4543.15 1301.04 4543.15 1647 4447.15 1647Z" stroke="#000000" stroke-width="5.72917" stroke-linecap="butt" stroke-linejoin="round" stroke-miterlimit="10" stroke-opacity="1" fill="#FFDEAD" fill-rule="nonzero" fill-opacity="1"/></g><g><path d="M229.5 1647.5 4648.5 1647.5" stroke="#000000" stroke-width="3.4375" stroke-linecap="butt" stroke-linejoin="round" stroke-miterlimit="10" stroke-opacity="1" fill="none" fill-rule="evenodd"/></g><g><text fill="#595959" fill-opacity="1" font-family="Calibri,Calibri_MSFontService,sans-serif" font-style="normal" font-variant="normal" font-weight="400" font-stretch="normal" font-size="55" text-anchor="start" direction="ltr" writing-mode="lr-tb" unicode-bidi="normal" text-decoration="none" transform="matrix(1 0 0 1 150.811 1662)">0</text></g><g><text fill="#595959" fill-opacity="1" font-family="Calibri,Calibri_MSFontService,sans-serif" font-style="normal" font-variant="normal" font-weight="400" font-stretch="normal" font-size="55" text-anchor="start" direction="ltr" writing-mode="lr-tb" unicode-bidi="normal" text-decoration="none" transform="matrix(1 0 0 1 109.171 1474)">0.5</text></g><g clip-path="url(#clip2)"><text fill="#595959" fill-opacity="1" font-family="Calibri,Calibri_MSFontService,sans-serif" font-style="normal" font-variant="normal" font-weight="400" font-stretch="normal" font-size="55" text-anchor="start" direction="ltr" writing-mode="lr-tb" unicode-bidi="normal" text-decoration="none" transform="matrix(1 0 0 1 150.811 1286)">1</text></g><g><text fill="#595959" fill-opacity="1" font-family="Times New Roman,Times New Roman_MSFontService,sans-serif" font-style="normal" font-variant="normal" font-weight="700" font-stretch="normal" font-size="73" text-anchor="start" direction="ltr" writing-mode="lr-tb" unicode-bidi="normal" text-decoration="none" transform="matrix(1 0 0 1 391.625 1756)">EN-DE</text></g><g><text fill="#595959" fill-opacity="1" font-family="Times New Roman,Times New Roman_MSFontService,sans-serif" font-style="normal" font-variant="normal" font-weight="700" font-stretch="normal" font-size="73" text-anchor="start" direction="ltr" writing-mode="lr-tb" unicode-bidi="normal" text-decoration="none" transform="matrix(1 0 0 1 950.119 1756)">EN-ES</text></g><g><text fill="#595959" fill-opacity="1" font-family="Times New Roman,Times New Roman_MSFontService,sans-serif" font-style="normal" font-variant="normal" font-weight="700" font-stretch="normal" font-size="73" text-anchor="start" direction="ltr" writing-mode="lr-tb" unicode-bidi="normal" text-decoration="none" transform="matrix(1 0 0 1 1498.5 1756)">EN-FR</text></g><g><text fill="#595959" fill-opacity="1" font-family="Times New Roman,Times New Roman_MSFontService,sans-serif" font-style="normal" font-variant="normal" font-weight="700" font-stretch="normal" font-size="73" text-anchor="start" direction="ltr" writing-mode="lr-tb" unicode-bidi="normal" text-decoration="none" transform="matrix(1 0 0 1 1940.87 1756)">Unscrambling</text></g><g><text fill="#595959" fill-opacity="1" font-family="Times New Roman,Times New Roman_MSFontService,sans-serif" font-style="normal" font-variant="normal" font-weight="700" font-stretch="normal" font-size="73" text-anchor="start" direction="ltr" writing-mode="lr-tb" unicode-bidi="normal" text-decoration="none" transform="matrix(1 0 0 1 2483.19 1756)">Categorization</text></g><g><text fill="#595959" fill-opacity="1" font-family="Times New Roman,Times New Roman_MSFontService,sans-serif" font-style="normal" font-variant="normal" font-weight="700" font-stretch="normal" font-size="73" text-anchor="start" direction="ltr" writing-mode="lr-tb" unicode-bidi="normal" text-decoration="none" transform="matrix(1 0 0 1 3098.63 1756)">Debugging</text></g><g><text fill="#595959" fill-opacity="1" font-family="Times New Roman,Times New Roman_MSFontService,sans-serif" font-style="normal" font-variant="normal" font-weight="700" font-stretch="normal" font-size="73" text-anchor="start" direction="ltr" writing-mode="lr-tb" unicode-bidi="normal" text-decoration="none" transform="matrix(1 0 0 1 3584.94 1756)">Larger Animal</text></g><g><text fill="#595959" fill-opacity="1" font-family="Times New Roman,Times New Roman_MSFontService,sans-serif" font-style="normal" font-variant="normal" font-weight="700" font-stretch="normal" font-size="73" text-anchor="start" direction="ltr" writing-mode="lr-tb" unicode-bidi="normal" text-decoration="none" transform="matrix(1 0 0 1 4160.65 1756)">Odd_one_out</text></g><g><path d="M195.5 2024.57 4658.5 2024.57M195.5 1850.5 4658.5 1850.5" stroke="#D9D9D9" stroke-width="3.4375" stroke-linecap="butt" stroke-linejoin="round" stroke-miterlimit="10" stroke-opacity="1" fill="none" fill-rule="nonzero"/></g><g><path d="M302.01 1850 400.013 1850 400.013 2199 302.01 2199ZM860.028 2049.07 957.031 2049.07 957.031 2199 860.028 2199ZM1418.05 1857.06 1515.05 1857.06 1515.05 2199 1418.05 2199ZM1976.06 1850 2073.07 1850 2073.07 2199 1976.06 2199ZM2534.08 1850 2631.09 1850 2631.09 2199 2534.08 2199ZM3091.1 1850 3189.1 1850 3189.1 2199 3091.1 2199ZM3649.12 1850 3747.12 1850 3747.12 2199 3649.12 2199ZM4207.14 1850 4304.14 1850 4304.14 2199 4207.14 2199Z" stroke="#000000" stroke-width="5.72917" stroke-linecap="butt" stroke-linejoin="round" stroke-miterlimit="10" stroke-opacity="1" fill="#F18080" fill-rule="nonzero" fill-opacity="1"/></g><g><path d="M426.014 1850 523.017 1850 523.017 2199 426.014 2199ZM984.032 1854.06 1081.04 1854.06 1081.04 2199 984.032 2199ZM1542.05 1857.06 1639.05 1857.06 1639.05 2199 1542.05 2199ZM2099.07 1850 2197.07 1850 2197.07 2199 2099.07 2199ZM2657.09 1875.06 2755.09 1875.06 2755.09 2199 2657.09 2199ZM3215.11 1976.06 3312.11 1976.06 3312.11 2199 3215.11 2199ZM3773.12 1850 3870.13 1850 3870.13 2199 3773.12 2199ZM4331.14 1850 4428.15 1850 4428.15 2199 4331.14 2199Z" stroke="#000000" stroke-width="5.72917" stroke-linecap="butt" stroke-linejoin="round" stroke-miterlimit="10" stroke-opacity="1" fill="#87CFEC" fill-rule="nonzero" fill-opacity="1"/></g><g><path d="M550.018 1850 647.021 1850 647.021 2199 550.018 2199ZM1107.04 1850 1205.04 1850 1205.04 2199 1107.04 2199ZM1665.05 1850 1763.06 1850 1763.06 2199 1665.05 2199ZM2223.07 1850 2320.08 1850 2320.08 2199 2223.07 2199ZM2781.09 1850 2878.09 1850 2878.09 2199 2781.09 2199ZM3339.11 1850 3436.11 1850 3436.11 2199 3339.11 2199ZM3897.13 1850 3994.13 1850 3994.13 2199 3897.13 2199ZM4454.15 1850 4552.15 1850 4552.15 2199 4454.15 2199Z" stroke="#000000" stroke-width="5.72917" stroke-linecap="butt" stroke-linejoin="round" stroke-miterlimit="10" stroke-opacity="1" fill="#FFDEAD" fill-rule="nonzero" fill-opacity="1"/></g><g><path d="M195.5 2198.5 4658.5 2198.5" stroke="#D9D9D9" stroke-width="3.4375" stroke-linecap="butt" stroke-linejoin="round" stroke-miterlimit="10" stroke-opacity="1" fill="none" fill-rule="evenodd"/></g><g><text fill="#595959" fill-opacity="1" font-family="Calibri,Calibri_MSFontService,sans-serif" font-style="normal" font-variant="normal" font-weight="400" font-stretch="normal" font-size="55" text-anchor="start" direction="ltr" writing-mode="lr-tb" unicode-bidi="normal" text-decoration="none" transform="matrix(1 0 0 1 117.048 2213)">0</text></g><g><text fill="#595959" fill-opacity="1" font-family="Calibri,Calibri_MSFontService,sans-serif" font-style="normal" font-variant="normal" font-weight="400" font-stretch="normal" font-size="55" text-anchor="start" direction="ltr" writing-mode="lr-tb" unicode-bidi="normal" text-decoration="none" transform="matrix(1 0 0 1 75.4085 2039)">0.5</text></g><g><text fill="#595959" fill-opacity="1" font-family="Calibri,Calibri_MSFontService,sans-serif" font-style="normal" font-variant="normal" font-weight="400" font-stretch="normal" font-size="55" text-anchor="start" direction="ltr" writing-mode="lr-tb" unicode-bidi="normal" text-decoration="none" transform="matrix(1 0 0 1 117.048 1865)">1</text></g><g><text fill="#595959" fill-opacity="1" font-family="Times New Roman,Times New Roman_MSFontService,sans-serif" font-style="normal" font-variant="normal" font-weight="700" font-stretch="normal" font-size="73" text-anchor="start" direction="ltr" writing-mode="lr-tb" unicode-bidi="normal" text-decoration="none" transform="matrix(1 0 0 1 297.405 2307)">Passivation</text></g><g><text fill="#595959" fill-opacity="1" font-family="Times New Roman,Times New Roman_MSFontService,sans-serif" font-style="normal" font-variant="normal" font-weight="700" font-stretch="normal" font-size="73" text-anchor="start" direction="ltr" writing-mode="lr-tb" unicode-bidi="normal" text-decoration="none" transform="matrix(1 0 0 1 828.795 2307)">Pluralization</text></g><g><text fill="#595959" fill-opacity="1" font-family="Times New Roman,Times New Roman_MSFontService,sans-serif" font-style="normal" font-variant="normal" font-weight="700" font-stretch="normal" font-size="73" text-anchor="start" direction="ltr" writing-mode="lr-tb" unicode-bidi="normal" text-decoration="none" transform="matrix(1 0 0 1 1460.01 2307)">Periodic</text></g><g><text fill="#595959" fill-opacity="1" font-family="Times New Roman,Times New Roman_MSFontService,sans-serif" font-style="normal" font-variant="normal" font-weight="700" font-stretch="normal" font-size="73" text-anchor="start" direction="ltr" writing-mode="lr-tb" unicode-bidi="normal" text-decoration="none" transform="matrix(1 0 0 1 2076.82 2307)">Sum</text></g><g><text fill="#595959" fill-opacity="1" font-family="Times New Roman,Times New Roman_MSFontService,sans-serif" font-style="normal" font-variant="normal" font-weight="700" font-stretch="normal" font-size="73" text-anchor="start" direction="ltr" writing-mode="lr-tb" unicode-bidi="normal" text-decoration="none" transform="matrix(1 0 0 1 2523.8 2307)">First Letter</text></g><g><text fill="#595959" fill-opacity="1" font-family="Times New Roman,Times New Roman_MSFontService,sans-serif" font-style="normal" font-variant="normal" font-weight="700" font-stretch="normal" font-size="73" text-anchor="start" direction="ltr" writing-mode="lr-tb" unicode-bidi="normal" text-decoration="none" transform="matrix(1 0 0 1 3202.74 2307)">Diff</text></g><g><text fill="#595959" fill-opacity="1" font-family="Times New Roman,Times New Roman_MSFontService,sans-serif" font-style="normal" font-variant="normal" font-weight="700" font-stretch="normal" font-size="73" text-anchor="start" direction="ltr" writing-mode="lr-tb" unicode-bidi="normal" text-decoration="none" transform="matrix(1 0 0 1 3617.98 2307)">Num2Verbal</text></g><g><text fill="#595959" fill-opacity="1" font-family="Times New Roman,Times New Roman_MSFontService,sans-serif" font-style="normal" font-variant="normal" font-weight="700" font-stretch="normal" font-size="73" text-anchor="start" direction="ltr" writing-mode="lr-tb" unicode-bidi="normal" text-decoration="none" transform="matrix(1 0 0 1 4211.53 2307)">Letters list</text></g></g></g></svg>